<?xml version="1.0" standalone="no"?>
<!DOCTYPE svg PUBLIC "-//W3C//DTD SVG 20010904//EN"
 "http://www.w3.org/TR/2001/REC-SVG-20010904/DTD/svg10.dtd">
<svg version="1.0" xmlns="http://www.w3.org/2000/svg"
 width="92.000000pt" height="92.000000pt" viewBox="0 0 92.000000 92.000000"
 preserveAspectRatio="xMidYMid meet">
<metadata>
Created by potrace 1.14, written by Peter Selinger 2001-2017
</metadata>
<g transform="translate(0.000000,92.000000) scale(0.100000,-0.100000)"
fill="#000000" stroke="none">
<path d="M325 767 c-72 -40 -141 -80 -154 -89 l-23 -16 41 -27 c85 -53 81 -53
180 4 50 28 93 51 96 51 2 0 48 -26 102 -58 184 -110 224 -132 233 -127 9 6 6
114 -4 138 -5 9 -38 34 -75 54 -36 20 -102 58 -147 83 -44 26 -89 50 -100 54
-13 4 -60 -17 -149 -67z"/>
<path d="M409 604 c-42 -21 -77 -51 -68 -57 12 -9 160 -95 199 -116 25 -13 64
-37 87 -52 23 -16 44 -29 48 -29 3 0 23 -11 44 -25 22 -13 50 -27 64 -30 24
-6 24 -6 23 61 -2 61 -4 68 -31 90 -32 25 -149 96 -225 135 -94 49 -92 48
-141 23z"/>
<path d="M119 578 c-3 -98 14 -138 65 -154 12 -4 23 -10 26 -13 3 -4 61 -38
128 -75 136 -75 127 -75 213 -21 l41 27 -33 20 c-90 55 -362 208 -370 208 -5
0 -9 4 -9 9 0 5 -8 11 -17 15 -10 3 -24 9 -30 12 -9 4 -13 -5 -14 -28z"/>
<path d="M119 378 c-4 -75 3 -123 19 -138 15 -14 38 -28 167 -101 93 -52 148
-79 161 -79 15 0 258 134 287 158 16 14 13 18 -39 53 -31 20 -65 36 -74 34
-10 -2 -49 -22 -86 -46 -38 -23 -80 -42 -94 -42 -14 0 -52 16 -83 36 -32 21
-60 37 -63 37 -3 0 -19 10 -36 21 -16 12 -58 37 -94 55 -64 34 -64 34 -65 12z"/>
</g>
</svg>
